<svg width="103" height="103" viewBox="0 0 103 103" fill="none" xmlns="http://www.w3.org/2000/svg">
<path d="M47.208 72.9585H55.7913V47.2085H47.208V72.9585ZM51.4997 38.6252C52.7156 38.6252 53.7349 38.2139 54.5575 37.3913C55.3801 36.5687 55.7913 35.5495 55.7913 34.3335C55.7913 33.1175 55.3801 32.0983 54.5575 31.2757C53.7349 30.4531 52.7156 30.0418 51.4997 30.0418C50.2837 30.0418 49.2644 30.4531 48.4419 31.2757C47.6193 32.0983 47.208 33.1175 47.208 34.3335C47.208 35.5495 47.6193 36.5687 48.4419 37.3913C49.2644 38.2139 50.2837 38.6252 51.4997 38.6252ZM51.4997 94.4168C45.5629 94.4168 39.9837 93.2903 34.7622 91.0371C29.5406 88.784 24.9986 85.7262 21.1361 81.8637C17.2736 78.0012 14.2158 73.4592 11.9627 68.2377C9.70957 63.0161 8.58301 57.437 8.58301 51.5002C8.58301 45.5634 9.70957 39.9842 11.9627 34.7627C14.2158 29.5411 17.2736 24.9991 21.1361 21.1366C24.9986 17.2741 29.5406 14.2163 34.7622 11.9632C39.9837 9.71006 45.5629 8.5835 51.4997 8.5835C57.4365 8.5835 63.0156 9.71006 68.2372 11.9632C73.4587 14.2163 78.0007 17.2741 81.8632 21.1366C85.7257 24.9991 88.7835 29.5411 91.0367 34.7627C93.2898 39.9842 94.4163 45.5634 94.4163 51.5002C94.4163 57.437 93.2898 63.0161 91.0367 68.2377C88.7835 73.4592 85.7257 78.0012 81.8632 81.8637C78.0007 85.7262 73.4587 88.784 68.2372 91.0371C63.0156 93.2903 57.4365 94.4168 51.4997 94.4168ZM51.4997 85.8335C61.0844 85.8335 69.2028 82.5075 75.8549 75.8554C82.507 69.2033 85.833 61.0849 85.833 51.5002C85.833 41.9154 82.507 33.797 75.8549 27.145C69.2028 20.4929 61.0844 17.1668 51.4997 17.1668C41.915 17.1668 33.7966 20.4929 27.1445 27.145C20.4924 33.797 17.1663 41.9154 17.1663 51.5002C17.1663 61.0849 20.4924 69.2033 27.1445 75.8554C33.7966 82.5075 41.915 85.8335 51.4997 85.8335Z" fill="#0082C6"/>
</svg>
