<svg width="90" height="79" viewBox="0 0 90 79" fill="none" xmlns="http://www.w3.org/2000/svg">
<path d="M0 79L45 0L90 79H0ZM11.4759 72.2286H78.5241L45 13.5429L11.4759 72.2286ZM45 66.8464C46.0161 66.8464 46.8679 66.4969 47.5554 65.798C48.2429 65.099 48.5866 64.233 48.5866 63.2C48.5866 62.167 48.2429 61.301 47.5554 60.602C46.8679 59.9031 46.0161 59.5536 45 59.5536C43.9839 59.5536 43.1321 59.9031 42.4446 60.602C41.7571 61.301 41.4134 62.167 41.4134 63.2C41.4134 64.233 41.7571 65.099 42.4446 65.798C43.1321 66.4969 43.9839 66.8464 45 66.8464ZM41.6698 55.0393H48.3302V32.4679H41.6698V55.0393Z" fill="#0082C6"/>
</svg>
