<svg width="85" height="85" viewBox="0 0 85 85" fill="none" xmlns="http://www.w3.org/2000/svg">
<path d="M36.1507 61.5299L66.2273 31.4534L61.5132 26.7392L36.1507 52.1016L23.4007 39.3516L18.6866 44.0658L36.1507 61.5299ZM42.5078 85C36.6294 85 31.104 83.8846 25.9317 81.6537C20.7594 79.4228 16.2603 76.3952 12.4346 72.571C8.60886 68.7467 5.5798 64.2496 3.34743 59.0795C1.11581 53.9094 0 48.3855 0 42.5078C0 36.6294 1.11544 31.104 3.34632 25.9317C5.57719 20.7594 8.60476 16.2603 12.429 12.4346C16.2533 8.60886 20.7504 5.5798 25.9205 3.34743C31.0906 1.11581 36.6145 0 42.4922 0C48.3706 0 53.896 1.11544 59.0683 3.34631C64.2406 5.57719 68.7396 8.60476 72.5654 12.429C76.3911 16.2533 79.4202 20.7504 81.6526 25.9205C83.8842 31.0906 85 36.6145 85 42.4922C85 48.3706 83.8846 53.896 81.6537 59.0683C79.4228 64.2406 76.3952 68.7396 72.571 72.5654C68.7467 76.3911 64.2496 79.4202 59.0795 81.6526C53.9094 83.8842 48.3855 85 42.5078 85ZM42.5 78.2895C52.4912 78.2895 60.9539 74.8224 67.8882 67.8882C74.8224 60.9539 78.2895 52.4912 78.2895 42.5C78.2895 32.5088 74.8224 24.0461 67.8882 17.1118C60.9539 10.1776 52.4912 6.71053 42.5 6.71053C32.5088 6.71053 24.0461 10.1776 17.1118 17.1118C10.1776 24.0461 6.71053 32.5088 6.71053 42.5C6.71053 52.4912 10.1776 60.9539 17.1118 67.8882C24.0461 74.8224 32.5088 78.2895 42.5 78.2895Z" fill="#0082C6"/>
</svg>
